<?xml version="1.0" encoding="UTF-8"?>
<svg version="1.1" viewBox="0 0 1600 822" width="1280" height="1280" xmlns="http://www.w3.org/2000/svg">
<path transform="translate(0)" d="m0 0h1600v822h-1600z" fill="#0B0D21"/>
<path transform="translate(0)" d="m0 0h153l-3 7-6 5-1 2h-2l-2 4-5 5h-2v2h-2l-1 3-8 6-14 9-10 6-10 4-7 4-11 4-9 4-24 6-22 4h-14z" fill="#1C3B7A"/>
<path transform="translate(794,585)" d="m0 0h10l70 8 4 2-21 12 18 10 25 13 14 8 1 4-3 1-20-4-11-7-4-3h-7l-27 13h-12l-22-2-20-4-25-4-12-2-11-4 1-3 14-10 1-2-9-3-22-11-7-3v-1l16 1 13 1 10-4 28-4z" fill="#412053"/>
<path transform="translate(1310,270)" d="m0 0 4 1 1 3-3 3-3-1-1-4z" fill="#412053"/>
<path transform="translate(1501,104)" d="m0 0h5l1 3-2 3-4-1-1-3z" fill="#412053"/>
<path transform="translate(337,83)" d="m0 0h5v5l-4 1-2-4z" fill="#1C3B7A"/>
<path transform="translate(153,228)" d="m0 0 4 1-1 5-5-1 1-4z" fill="#1C3B7A"/>
<path transform="translate(1205,93)" d="m0 0 5 1v4l-4 1-2-2z" fill="#213774"/>
<path transform="translate(792,89)" d="m0 0 4 1-1 5-4-1-1-3z" fill="#1C3B7A"/>
</svg>
