<?xml version="1.0" encoding="UTF-8"?>
<svg version="1.1" viewBox="0 0 1000 1000" width="1280" height="1280" xmlns="http://www.w3.org/2000/svg">
<path transform="translate(472,43)" d="m0 0h56l36 4 29 5 20 4 29 9 18 6 21 9 10 4 16 8 19 10 10 6 16 10 12 8 10 8 13 10 11 9 12 11 8 7 17 17 7 8 12 14 10 13 7 9 7 10 11 17 7 12 8 14 10 19 5 12 8 19 5 12 5 17 8 27 3 16 5 27 3 25 1 12v58l-3 30-5 29-6 28-9 29-4 13-7 17-12 27-6 10-8 16-6 9-11 18-10 14-9 11-11 14-9 10-7 8-25 25-11 10-10 8-13 10-9 7-10 7-20 13-10 5-8 5-32 16-13 5-12 5-14 5-32 10-12 3-17 3-30 5-31 3h-50l-31-3-30-5-25-5-18-5-27-9-18-7-19-8-17-9-16-8-8-5-18-11-10-7-26-20-17-14-8-7-18-18-7-8-10-11-11-14-10-13-8-10-11-18-8-13-8-14-14-28-4-11-4-9-6-14-5-18-7-22-2-11-7-36-3-25-1-12v-58l3-30 5-29 3-14 2-11 9-29 5-16 7-17 12-27 10-19 11-18 10-16 8-12 7-8 8-11 11-13 18-20 16-16 8-7 14-12 17-13 9-7 23-15 14-8 10-6 19-10 13-6 13-5 20-8 33-10 15-4 17-3 29-5zm13 33-28 2-32 4-26 6-36 10-20 8-17 7-23 11-29 17-15 10-8 6-17 13-13 11-10 9-13 12-14 15-12 14-10 13v2l-3 1v3h-2l-1 3-4 4-7 11-11 18-2 6h-2l-6 11-13 27-3 7v4l-2 1-2 6-10 27-11 44-3 17v5l-1 2-1 13-2 28v32l2 27 1 15 1 1 1 11 5 24 7 25 4 15 8 20 1 5h2l1 6 11 23 9 18h2l2 7h2l1 4 9 15 8 12h2l1 4h2v3h2l1 4 8 9 11 14 16 17 12 12 7-6 13-10 17-11 14-9 16-8 11-5 14-5 12-5 16-5 18-6 19-8 14-9 10-9 6-9 4-8 2-8v-51l-1-16-4-2-1-4-9-12-14-27-5-12-10-26-9-7-7-7-8-13-5-13-2-11v-26l3-10 3-6v-7l-4-27-2-20v-17l-1-1v-25l1-2v-14l3-24 6-25 6-19 8-16 4-7v-3h2v-3h2l10-14 7-7v-2l4-2 9-8 15-10 15-8 12-5 28-7 20-3 12-1h38l22 3 13 4 10 5 6 6h2l1 4 10 11 18 2 16 4 14 8 10 8 9 10 11 18 5 14 2 7 5 21 2 15 1 14v23l-2 26-5 33-2 10-2 12-4 17 5 10 1 5 1 6v17l-1 12-2 7-5 12-8 12-6 7-10 7-5 5-4 13v4l-2 1-3 9-5 12-7 16-6 10v2h-2l-4 6v3l-4 2-1 1v66l3 10 5 9 17 17 11 7 28 12 17 5 17 6 11 5 13 5 15 8 11 6 20 13 13 10 9 8 7-6 17-17 9-11 11-13 5-6v-3l3-1 2-6 3-1 12-19 5-8v-3h2l1-5h2l6-11 9-20 7-14v-4l2-1 2-6 9-24 8-31 5-21 2-12v-5l1-2 1-14 2-27v-32l-3-42-1-1-1-11-5-24-8-30-6-18-6-14v-3h-2l-1-6-16-34-5-9h-2l-2-6-9-15-7-11-4-6-2-1-2-4h-2l-1-4-11-13-8-10-24-26-8-7-13-12-14-11-12-9-9-7-16-10-15-9-16-9-23-11-26-10-16-6-27-7-26-6-42-5-18-1z" fill="#fff"/>
</svg>
